<?xml version="1.0" encoding="utf-8"?>
<!-- Generator: Adobe Illustrator 27.9.1, SVG Export Plug-In . SVG Version: 6.00 Build 0)  -->
<svg version="1.1" id="Layer_1" xmlns="http://www.w3.org/2000/svg" xmlns:xlink="http://www.w3.org/1999/xlink" x="0px" y="0px"
	 viewBox="0 0 55 55" style="enable-background:new 0 0 55 55;" xml:space="preserve">
<style type="text/css">
	.st0{fill:#FFFFFF;}
</style>
<path class="st0" d="M52.97,11.29c0-5.11-6.27-8.96-14.58-8.96S23.8,6.18,23.8,11.29c0,0.05,0.01,0.09,0.01,0.13H23.8v6.82h4.17
	v-0.56c2.61,1.6,6.26,2.57,10.42,2.57c3.84,0,7.23-0.83,9.78-2.21c0.4,0.45,0.64,0.89,0.64,1.28c0,1.76-4.15,4.41-10.42,4.41h-4.17
	v4.55h4.17c3.84,0,7.23-0.83,9.78-2.22c0.4,0.45,0.63,0.89,0.63,1.28c0,1.76-4.15,4.41-10.42,4.41l-1.47,0.01
	c-0.91,0.01-1.78,0.02-2.64-0.01l-0.1,4.54c0.46,0.01,0.92,0.02,1.39,0.02c0.45,0,0.91,0,1.38-0.01l1.44-0.01
	c3.84,0,7.24-0.83,9.79-2.22c0.4,0.45,0.63,0.9,0.63,1.28c0,1.76-4.15,4.41-10.42,4.41h-4.17v4.55h4.17c3.84,0,7.24-0.83,9.79-2.22
	c0.4,0.45,0.63,0.89,0.63,1.28c0,1.76-4.15,4.41-10.42,4.41h-4.17v4.55h4.17c8.31,0,14.58-3.85,14.58-8.96
	c0-0.04-0.01-0.09-0.01-0.13h0.01V11.42h-0.01C52.96,11.37,52.97,11.33,52.97,11.29L52.97,11.29z M27.97,11.29
	c0-1.76,4.15-4.41,10.42-4.41S48.8,9.53,48.8,11.29c0,1.76-4.15,4.41-10.42,4.41S27.97,13.04,27.97,11.29L27.97,11.29z"/>
<path class="st0" d="M17.55,18.24c-8.31,0-14.58,3.85-14.58,8.96c0,0.05,0.01,0.09,0.01,0.13H2.97v15.91
	c0,5.11,6.27,8.96,14.58,8.96s14.58-3.85,14.58-8.96V27.33h-0.01c0-0.04,0.01-0.09,0.01-0.13C32.14,22.09,25.87,18.24,17.55,18.24
	L17.55,18.24z M7.14,35.22c0-0.39,0.24-0.84,0.63-1.28c2.55,1.39,5.94,2.22,9.79,2.22c3.84,0,7.23-0.83,9.78-2.21
	c0.4,0.45,0.64,0.89,0.64,1.28c0,1.76-4.15,4.41-10.42,4.41S7.14,36.97,7.14,35.22L7.14,35.22z M17.55,22.78
	c6.26,0,10.42,2.66,10.42,4.41c0,1.76-4.15,4.41-10.42,4.41S7.14,28.95,7.14,27.19C7.14,25.44,11.29,22.78,17.55,22.78L17.55,22.78z
	 M17.55,47.65c-6.26,0-10.42-2.66-10.42-4.41c0-0.39,0.24-0.83,0.63-1.28c2.55,1.39,5.94,2.22,9.78,2.22c3.84,0,7.23-0.83,9.78-2.22
	c0.4,0.45,0.63,0.89,0.63,1.28C27.97,44.99,23.81,47.65,17.55,47.65L17.55,47.65z"/>
</svg>
